<svg version="1.2" baseProfile="tiny-ps" xmlns="http://www.w3.org/2000/svg" viewBox="0 0 30 30" width="30" height="30">
	<title>Group 55</title>
	<style>
		tspan { white-space:pre }
		.shp0 { fill: #333333 } 
	</style>
	<g id="Group 55">
		<g id="חיפוש">
			<path id="Forma 1 copy" class="shp0" d="M13.65 21.33C13.65 22.62 12.6 23.67 11.31 23.67L8.55 23.67C7.26 23.67 6.21 22.62 6.21 21.33L6.21 18.57C6.21 17.28 7.26 16.23 8.55 16.23L11.31 16.23C12.6 16.23 13.65 17.28 13.65 18.57L13.65 21.33ZM11.31 18.57L8.55 18.57L8.55 21.33C8.55 21.33 8.55 21.33 8.55 21.33L11.31 21.33L11.31 18.57ZM7.38 11.13C6.74 11.13 6.21 11.66 6.21 12.3C6.21 12.95 6.74 13.48 7.38 13.48C8.03 13.48 8.55 12.95 8.55 12.3C8.55 11.66 8.03 11.13 7.38 11.13ZM12.48 11.13C11.83 11.13 11.31 11.66 11.31 12.3C11.31 12.95 11.83 13.48 12.48 13.48C13.13 13.48 13.65 12.95 13.65 12.3C13.65 11.66 13.13 11.13 12.48 11.13ZM1.17 20.62C0.52 20.62 0 20.1 0 19.45L0 7.03C0 4.45 2.1 2.34 4.69 2.34L6.21 2.34L6.21 1.17C6.21 0.52 6.74 0 7.38 0C8.03 0 8.55 0.52 8.55 1.17L8.55 2.34L13.89 2.34L13.89 1.17C13.89 0.52 14.41 0 15.06 0C15.71 0 16.23 0.52 16.23 1.17L16.23 2.34L21.5 2.34L21.5 1.17C21.5 0.52 22.03 0 22.68 0C23.32 0 23.85 0.52 23.85 1.17L23.85 2.34L25.31 2.34C27.9 2.34 30 4.45 30 7.03L30 25.31C30 27.9 27.9 30 25.31 30L4.69 30C2.1 30 0 27.9 0 25.31C0 24.66 0.52 24.14 1.17 24.14C1.82 24.14 2.34 24.66 2.34 25.31C2.34 26.6 3.39 27.65 4.69 27.65L25.31 27.65C26.6 27.65 27.66 26.6 27.66 25.31L27.66 7.03C27.66 5.74 26.6 4.69 25.31 4.69L23.85 4.69L23.85 5.86C23.85 6.51 23.32 7.03 22.68 7.03C22.03 7.03 21.5 6.51 21.5 5.86L21.5 4.69L16.23 4.69L16.23 5.86C16.23 6.51 15.71 7.03 15.06 7.03C14.41 7.03 13.89 6.51 13.89 5.86L13.89 4.69L8.55 4.69L8.55 5.86C8.55 6.51 8.03 7.03 7.38 7.03C6.74 7.03 6.21 6.51 6.21 5.86L6.21 4.69L4.69 4.69C3.39 4.69 2.34 5.74 2.34 7.03L2.34 19.45C2.34 20.1 1.82 20.62 1.17 20.62ZM22.68 21.33C22.03 21.33 21.5 21.85 21.5 22.5C21.5 23.15 22.03 23.67 22.68 23.67C23.32 23.67 23.85 23.15 23.85 22.5C23.85 21.85 23.32 21.33 22.68 21.33ZM22.68 11.13C22.03 11.13 21.5 11.66 21.5 12.3C21.5 12.95 22.03 13.48 22.68 13.48C23.32 13.48 23.85 12.95 23.85 12.3C23.85 11.66 23.32 11.13 22.68 11.13ZM22.68 16.23C22.03 16.23 21.5 16.75 21.5 17.4C21.5 18.05 22.03 18.57 22.68 18.57C23.32 18.57 23.85 18.05 23.85 17.4C23.85 16.75 23.32 16.23 22.68 16.23ZM17.58 16.23C16.93 16.23 16.41 16.75 16.41 17.4C16.41 18.05 16.93 18.57 17.58 18.57C18.23 18.57 18.75 18.05 18.75 17.4C18.75 16.75 18.23 16.23 17.58 16.23ZM17.58 11.13C16.93 11.13 16.41 11.66 16.41 12.3C16.41 12.95 16.93 13.48 17.58 13.48C18.23 13.48 18.75 12.95 18.75 12.3C18.75 11.66 18.23 11.13 17.58 11.13ZM17.58 21.33C16.93 21.33 16.41 21.85 16.41 22.5C16.41 23.15 16.93 23.67 17.58 23.67C18.23 23.67 18.75 23.15 18.75 22.5C18.75 21.85 18.23 21.33 17.58 21.33Z" />
		</g>
	</g>
</svg>