<svg version="1.2" baseProfile="tiny-ps" xmlns="http://www.w3.org/2000/svg" viewBox="0 0 22 31" width="22" height="31">
	<title>Group 55</title>
	<style>
		tspan { white-space:pre }
		.shp0 { fill: #333333 } 
	</style>
	<g id="Group 55">
		<g id="חיפוש">
			<path id="Shape 1" class="shp0" d="M11 0.41C17.11 0.41 22.09 5.31 22.09 11.34C22.09 18.82 12.17 29.79 11.74 30.26C11.35 30.69 10.65 30.69 10.26 30.26C9.83 29.79 -0.09 18.82 -0.09 11.34C-0.09 5.31 4.89 0.41 11 0.41ZM11 27.58C14.21 23.83 19.73 16.42 19.73 11.5C19.73 6.75 15.81 2.9 11 2.9C6.19 2.9 2.27 6.75 2.27 11.5C2.27 16.42 7.79 23.82 11 27.58ZM11 5.84C14.08 5.84 16.58 8.31 16.58 11.34C16.58 14.37 14.08 16.84 11 16.84C7.92 16.84 5.42 14.37 5.42 11.34C5.42 8.31 7.92 5.84 11 5.84ZM11 14.52C12.78 14.52 14.22 13.09 14.22 11.34C14.22 9.59 12.78 8.16 11 8.16C9.22 8.16 7.78 9.59 7.78 11.34C7.78 13.09 9.22 14.52 11 14.52Z" />
		</g>
	</g>
</svg>