<svg version="1.2" baseProfile="tiny-ps" xmlns="http://www.w3.org/2000/svg" viewBox="0 0 30 27" width="30" height="27">
	<title>Group 55</title>
	<style>
		tspan { white-space:pre }
		.shp0 { fill: #333333 } 
	</style>
	<g id="Group 55">
		<g id="חיפוש">
			<g id="Group 44">
				<path id="Shape 22" class="shp0" d="M28.83 2.47L10.95 2.47C10.46 1.03 9.08 0 7.46 0C5.83 0 4.45 1.03 3.96 2.47L1.17 2.47C0.52 2.47 0 2.98 0 3.62C0 4.26 0.52 4.77 1.17 4.77L3.96 4.77C4.45 6.21 5.83 7.24 7.46 7.24C9.08 7.24 10.46 6.21 10.95 4.77L28.83 4.77C29.48 4.77 30 4.26 30 3.62C30 2.98 29.48 2.47 28.83 2.47ZM7.46 4.94C6.72 4.94 6.12 4.35 6.12 3.62C6.12 2.9 6.72 2.3 7.46 2.3C8.2 2.3 8.8 2.9 8.8 3.62C8.8 4.35 8.2 4.94 7.46 4.94ZM28.83 12.35L26.04 12.35C25.55 10.91 24.17 9.88 22.54 9.88C20.92 9.88 19.54 10.91 19.05 12.35L1.17 12.35C0.52 12.35 0 12.86 0 13.5C0 14.14 0.52 14.65 1.17 14.65L19.05 14.65C19.54 16.09 20.92 17.12 22.54 17.12C24.17 17.12 25.55 16.09 26.04 14.65L28.83 14.65C29.48 14.65 30 14.14 30 13.5C30 12.86 29.48 12.35 28.83 12.35ZM22.54 14.82C21.8 14.82 21.2 14.23 21.2 13.5C21.2 12.77 21.8 12.18 22.54 12.18C23.28 12.18 23.88 12.77 23.88 13.5C23.88 14.23 23.28 14.82 22.54 14.82ZM28.83 22.23L15.98 22.23C15.49 20.79 14.11 19.76 12.49 19.76C10.86 19.76 9.48 20.79 8.99 22.23L1.17 22.23C0.52 22.23 0 22.74 0 23.38C0 24.01 0.52 24.53 1.17 24.53L8.99 24.53C9.48 25.96 10.86 27 12.49 27C14.11 27 15.49 25.96 15.98 24.53L28.83 24.53C29.48 24.53 30 24.01 30 23.38C30 22.74 29.48 22.23 28.83 22.23ZM12.49 24.69C11.75 24.69 11.15 24.1 11.15 23.38C11.15 22.65 11.75 22.06 12.49 22.06C13.22 22.06 13.83 22.65 13.83 23.38C13.83 24.1 13.22 24.69 12.49 24.69Z" />
			</g>
		</g>
	</g>
</svg>