<svg version="1.2" baseProfile="tiny-ps" xmlns="http://www.w3.org/2000/svg" viewBox="0 0 30 30" width="30" height="30">
	<title>Group 55</title>
	<style>
		tspan { white-space:pre }
		.shp0 { fill: #ffffff } 
	</style>
	<g id="Group 55">
		<g id="חיפוש">
			<g id="Group 44">
				<path id="Shape 9" class="shp0" d="M0.82 29.17C1.92 30.27 3.7 30.27 4.8 29.17L11.68 22.29C10.09 21.27 8.73 19.91 7.71 18.31L0.82 25.2C-0.27 26.3 -0.27 28.08 0.82 29.17ZM18.75 22.5C24.96 22.5 30 17.46 30 11.25C30 5.04 24.96 0 18.75 0C12.54 0 7.5 5.04 7.5 11.25C7.5 17.46 12.54 22.5 18.75 22.5ZM18.75 2.81C23.4 2.81 27.19 6.6 27.19 11.25C27.19 15.9 23.4 19.69 18.75 19.69C14.1 19.69 10.31 15.9 10.31 11.25C10.31 6.6 14.1 2.81 18.75 2.81Z" />
			</g>
		</g>
	</g>
</svg>